<?xml version="1.0" encoding="utf-8" standalone="no"?>
<!DOCTYPE svg PUBLIC "-//W3C//DTD SVG 1.1//EN"
  "http://www.w3.org/Graphics/SVG/1.1/DTD/svg11.dtd">
<svg xmlns:xlink="http://www.w3.org/1999/xlink" width="366.413245pt" height="392.51625pt" viewBox="0 0 366.413245 392.51625" xmlns="http://www.w3.org/2000/svg" version="1.1">
 <metadata>
  <rdf:RDF xmlns:dc="http://purl.org/dc/elements/1.1/" xmlns:cc="http://creativecommons.org/ns#" xmlns:rdf="http://www.w3.org/1999/02/22-rdf-syntax-ns#">
   <cc:Work>
    <dc:type rdf:resource="http://purl.org/dc/dcmitype/StillImage"/>
    <dc:date>2025-11-04T11:56:06.505416</dc:date>
    <dc:format>image/svg+xml</dc:format>
    <dc:creator>
     <cc:Agent>
      <dc:title>Matplotlib v3.10.7, https://matplotlib.org/</dc:title>
     </cc:Agent>
    </dc:creator>
   </cc:Work>
  </rdf:RDF>
 </metadata>
 <defs>
  <style type="text/css">*{stroke-linejoin: round; stroke-linecap: butt}</style>
 </defs>
 <g id="figure_1">
  <g id="patch_1">
   <path d="M 0 392.51625 
L 366.413245 392.51625 
L 366.413245 0 
L 0 0 
z
" style="fill: #ffffff"/>
  </g>
  <g id="axes_1">
   <g id="patch_2">
    <path d="M 52.160938 354.96 
L 359.213245 354.96 
L 359.213245 22.32 
L 52.160938 22.32 
z
" style="fill: #ffffff"/>
   </g>
   <g id="matplotlib.axis_1">
    <g id="xtick_1">
     <g id="line2d_1">
      <defs>
       <path id="mf59bf09207" d="M 0 0 
L 0 3.5 
" style="stroke: #000000; stroke-width: 0.8"/>
      </defs>
      <g>
       <use xlink:href="#mf59bf09207" x="77.74863" y="354.96" style="stroke: #000000; stroke-width: 0.8"/>
      </g>
     </g>
     <g id="text_1">
      <!-- −1.0 -->
      <g transform="translate(65.607224 369.558437) scale(0.1 -0.1)">
       <defs>
        <path id="DejaVuSans-2212" d="M 678 2272 
L 4684 2272 
L 4684 1741 
L 678 1741 
L 678 2272 
z
" transform="scale(0.015625)"/>
        <path id="DejaVuSans-31" d="M 794 531 
L 1825 531 
L 1825 4091 
L 703 3866 
L 703 4441 
L 1819 4666 
L 2450 4666 
L 2450 531 
L 3481 531 
L 3481 0 
L 794 0 
L 794 531 
z
" transform="scale(0.015625)"/>
        <path id="DejaVuSans-2e" d="M 684 794 
L 1344 794 
L 1344 0 
L 684 0 
L 684 794 
z
" transform="scale(0.015625)"/>
        <path id="DejaVuSans-30" d="M 2034 4250 
Q 1547 4250 1301 3770 
Q 1056 3291 1056 2328 
Q 1056 1369 1301 889 
Q 1547 409 2034 409 
Q 2525 409 2770 889 
Q 3016 1369 3016 2328 
Q 3016 3291 2770 3770 
Q 2525 4250 2034 4250 
z
M 2034 4750 
Q 2819 4750 3233 4129 
Q 3647 3509 3647 2328 
Q 3647 1150 3233 529 
Q 2819 -91 2034 -91 
Q 1250 -91 836 529 
Q 422 1150 422 2328 
Q 422 3509 836 4129 
Q 1250 4750 2034 4750 
z
" transform="scale(0.015625)"/>
       </defs>
       <use xlink:href="#DejaVuSans-2212"/>
       <use xlink:href="#DejaVuSans-31" transform="translate(83.789062 0)"/>
       <use xlink:href="#DejaVuSans-2e" transform="translate(147.412109 0)"/>
       <use xlink:href="#DejaVuSans-30" transform="translate(179.199219 0)"/>
      </g>
     </g>
    </g>
    <g id="xtick_2">
     <g id="line2d_2">
      <g>
       <use xlink:href="#mf59bf09207" x="141.717861" y="354.96" style="stroke: #000000; stroke-width: 0.8"/>
      </g>
     </g>
     <g id="text_2">
      <!-- −0.5 -->
      <g transform="translate(129.576454 369.558437) scale(0.1 -0.1)">
       <defs>
        <path id="DejaVuSans-35" d="M 691 4666 
L 3169 4666 
L 3169 4134 
L 1269 4134 
L 1269 2991 
Q 1406 3038 1543 3061 
Q 1681 3084 1819 3084 
Q 2600 3084 3056 2656 
Q 3513 2228 3513 1497 
Q 3513 744 3044 326 
Q 2575 -91 1722 -91 
Q 1428 -91 1123 -41 
Q 819 9 494 109 
L 494 744 
Q 775 591 1075 516 
Q 1375 441 1709 441 
Q 2250 441 2565 725 
Q 2881 1009 2881 1497 
Q 2881 1984 2565 2268 
Q 2250 2553 1709 2553 
Q 1456 2553 1204 2497 
Q 953 2441 691 2322 
L 691 4666 
z
" transform="scale(0.015625)"/>
       </defs>
       <use xlink:href="#DejaVuSans-2212"/>
       <use xlink:href="#DejaVuSans-30" transform="translate(83.789062 0)"/>
       <use xlink:href="#DejaVuSans-2e" transform="translate(147.412109 0)"/>
       <use xlink:href="#DejaVuSans-35" transform="translate(179.199219 0)"/>
      </g>
     </g>
    </g>
    <g id="xtick_3">
     <g id="line2d_3">
      <g>
       <use xlink:href="#mf59bf09207" x="205.687091" y="354.96" style="stroke: #000000; stroke-width: 0.8"/>
      </g>
     </g>
     <g id="text_3">
      <!-- 0.0 -->
      <g transform="translate(197.735529 369.558437) scale(0.1 -0.1)">
       <use xlink:href="#DejaVuSans-30"/>
       <use xlink:href="#DejaVuSans-2e" transform="translate(63.623047 0)"/>
       <use xlink:href="#DejaVuSans-30" transform="translate(95.410156 0)"/>
      </g>
     </g>
    </g>
    <g id="xtick_4">
     <g id="line2d_4">
      <g>
       <use xlink:href="#mf59bf09207" x="269.656322" y="354.96" style="stroke: #000000; stroke-width: 0.8"/>
      </g>
     </g>
     <g id="text_4">
      <!-- 0.5 -->
      <g transform="translate(261.70476 369.558437) scale(0.1 -0.1)">
       <use xlink:href="#DejaVuSans-30"/>
       <use xlink:href="#DejaVuSans-2e" transform="translate(63.623047 0)"/>
       <use xlink:href="#DejaVuSans-35" transform="translate(95.410156 0)"/>
      </g>
     </g>
    </g>
    <g id="xtick_5">
     <g id="line2d_5">
      <g>
       <use xlink:href="#mf59bf09207" x="333.625553" y="354.96" style="stroke: #000000; stroke-width: 0.8"/>
      </g>
     </g>
     <g id="text_5">
      <!-- 1.0 -->
      <g transform="translate(325.67399 369.558437) scale(0.1 -0.1)">
       <use xlink:href="#DejaVuSans-31"/>
       <use xlink:href="#DejaVuSans-2e" transform="translate(63.623047 0)"/>
       <use xlink:href="#DejaVuSans-30" transform="translate(95.410156 0)"/>
      </g>
     </g>
    </g>
    <g id="text_6">
     <!-- $x_1$ (horizontal) -->
     <g transform="translate(169.887091 383.236562) scale(0.1 -0.1)">
      <defs>
       <path id="DejaVuSans-Oblique-78" d="M 3841 3500 
L 2234 1784 
L 3219 0 
L 2559 0 
L 1819 1388 
L 531 0 
L -166 0 
L 1556 1844 
L 641 3500 
L 1300 3500 
L 1972 2234 
L 3144 3500 
L 3841 3500 
z
" transform="scale(0.015625)"/>
       <path id="DejaVuSans-20" transform="scale(0.015625)"/>
       <path id="DejaVuSans-28" d="M 1984 4856 
Q 1566 4138 1362 3434 
Q 1159 2731 1159 2009 
Q 1159 1288 1364 580 
Q 1569 -128 1984 -844 
L 1484 -844 
Q 1016 -109 783 600 
Q 550 1309 550 2009 
Q 550 2706 781 3412 
Q 1013 4119 1484 4856 
L 1984 4856 
z
" transform="scale(0.015625)"/>
       <path id="DejaVuSans-68" d="M 3513 2113 
L 3513 0 
L 2938 0 
L 2938 2094 
Q 2938 2591 2744 2837 
Q 2550 3084 2163 3084 
Q 1697 3084 1428 2787 
Q 1159 2491 1159 1978 
L 1159 0 
L 581 0 
L 581 4863 
L 1159 4863 
L 1159 2956 
Q 1366 3272 1645 3428 
Q 1925 3584 2291 3584 
Q 2894 3584 3203 3211 
Q 3513 2838 3513 2113 
z
" transform="scale(0.015625)"/>
       <path id="DejaVuSans-6f" d="M 1959 3097 
Q 1497 3097 1228 2736 
Q 959 2375 959 1747 
Q 959 1119 1226 758 
Q 1494 397 1959 397 
Q 2419 397 2687 759 
Q 2956 1122 2956 1747 
Q 2956 2369 2687 2733 
Q 2419 3097 1959 3097 
z
M 1959 3584 
Q 2709 3584 3137 3096 
Q 3566 2609 3566 1747 
Q 3566 888 3137 398 
Q 2709 -91 1959 -91 
Q 1206 -91 779 398 
Q 353 888 353 1747 
Q 353 2609 779 3096 
Q 1206 3584 1959 3584 
z
" transform="scale(0.015625)"/>
       <path id="DejaVuSans-72" d="M 2631 2963 
Q 2534 3019 2420 3045 
Q 2306 3072 2169 3072 
Q 1681 3072 1420 2755 
Q 1159 2438 1159 1844 
L 1159 0 
L 581 0 
L 581 3500 
L 1159 3500 
L 1159 2956 
Q 1341 3275 1631 3429 
Q 1922 3584 2338 3584 
Q 2397 3584 2469 3576 
Q 2541 3569 2628 3553 
L 2631 2963 
z
" transform="scale(0.015625)"/>
       <path id="DejaVuSans-69" d="M 603 3500 
L 1178 3500 
L 1178 0 
L 603 0 
L 603 3500 
z
M 603 4863 
L 1178 4863 
L 1178 4134 
L 603 4134 
L 603 4863 
z
" transform="scale(0.015625)"/>
       <path id="DejaVuSans-7a" d="M 353 3500 
L 3084 3500 
L 3084 2975 
L 922 459 
L 3084 459 
L 3084 0 
L 275 0 
L 275 525 
L 2438 3041 
L 353 3041 
L 353 3500 
z
" transform="scale(0.015625)"/>
       <path id="DejaVuSans-6e" d="M 3513 2113 
L 3513 0 
L 2938 0 
L 2938 2094 
Q 2938 2591 2744 2837 
Q 2550 3084 2163 3084 
Q 1697 3084 1428 2787 
Q 1159 2491 1159 1978 
L 1159 0 
L 581 0 
L 581 3500 
L 1159 3500 
L 1159 2956 
Q 1366 3272 1645 3428 
Q 1925 3584 2291 3584 
Q 2894 3584 3203 3211 
Q 3513 2838 3513 2113 
z
" transform="scale(0.015625)"/>
       <path id="DejaVuSans-74" d="M 1172 4494 
L 1172 3500 
L 2356 3500 
L 2356 3053 
L 1172 3053 
L 1172 1153 
Q 1172 725 1289 603 
Q 1406 481 1766 481 
L 2356 481 
L 2356 0 
L 1766 0 
Q 1100 0 847 248 
Q 594 497 594 1153 
L 594 3053 
L 172 3053 
L 172 3500 
L 594 3500 
L 594 4494 
L 1172 4494 
z
" transform="scale(0.015625)"/>
       <path id="DejaVuSans-61" d="M 2194 1759 
Q 1497 1759 1228 1600 
Q 959 1441 959 1056 
Q 959 750 1161 570 
Q 1363 391 1709 391 
Q 2188 391 2477 730 
Q 2766 1069 2766 1631 
L 2766 1759 
L 2194 1759 
z
M 3341 1997 
L 3341 0 
L 2766 0 
L 2766 531 
Q 2569 213 2275 61 
Q 1981 -91 1556 -91 
Q 1019 -91 701 211 
Q 384 513 384 1019 
Q 384 1609 779 1909 
Q 1175 2209 1959 2209 
L 2766 2209 
L 2766 2266 
Q 2766 2663 2505 2880 
Q 2244 3097 1772 3097 
Q 1472 3097 1187 3025 
Q 903 2953 641 2809 
L 641 3341 
Q 956 3463 1253 3523 
Q 1550 3584 1831 3584 
Q 2591 3584 2966 3190 
Q 3341 2797 3341 1997 
z
" transform="scale(0.015625)"/>
       <path id="DejaVuSans-6c" d="M 603 4863 
L 1178 4863 
L 1178 0 
L 603 0 
L 603 4863 
z
" transform="scale(0.015625)"/>
       <path id="DejaVuSans-29" d="M 513 4856 
L 1013 4856 
Q 1481 4119 1714 3412 
Q 1947 2706 1947 2009 
Q 1947 1309 1714 600 
Q 1481 -109 1013 -844 
L 513 -844 
Q 928 -128 1133 580 
Q 1338 1288 1338 2009 
Q 1338 2731 1133 3434 
Q 928 4138 513 4856 
z
" transform="scale(0.015625)"/>
      </defs>
      <use xlink:href="#DejaVuSans-Oblique-78" transform="translate(0 0.015625)"/>
      <use xlink:href="#DejaVuSans-31" transform="translate(59.179688 -16.390625) scale(0.7)"/>
      <use xlink:href="#DejaVuSans-20" transform="translate(106.450195 0.015625)"/>
      <use xlink:href="#DejaVuSans-28" transform="translate(138.237305 0.015625)"/>
      <use xlink:href="#DejaVuSans-68" transform="translate(177.250977 0.015625)"/>
      <use xlink:href="#DejaVuSans-6f" transform="translate(240.629883 0.015625)"/>
      <use xlink:href="#DejaVuSans-72" transform="translate(301.811523 0.015625)"/>
      <use xlink:href="#DejaVuSans-69" transform="translate(342.924805 0.015625)"/>
      <use xlink:href="#DejaVuSans-7a" transform="translate(370.708008 0.015625)"/>
      <use xlink:href="#DejaVuSans-6f" transform="translate(423.198242 0.015625)"/>
      <use xlink:href="#DejaVuSans-6e" transform="translate(484.379883 0.015625)"/>
      <use xlink:href="#DejaVuSans-74" transform="translate(547.758789 0.015625)"/>
      <use xlink:href="#DejaVuSans-61" transform="translate(586.967773 0.015625)"/>
      <use xlink:href="#DejaVuSans-6c" transform="translate(648.24707 0.015625)"/>
      <use xlink:href="#DejaVuSans-29" transform="translate(676.030273 0.015625)"/>
     </g>
    </g>
   </g>
   <g id="matplotlib.axis_2">
    <g id="ytick_1">
     <g id="line2d_6">
      <defs>
       <path id="m8df7aabcec" d="M 0 0 
L -3.5 0 
" style="stroke: #000000; stroke-width: 0.8"/>
      </defs>
      <g>
       <use xlink:href="#m8df7aabcec" x="52.160938" y="316.578462" style="stroke: #000000; stroke-width: 0.8"/>
      </g>
     </g>
     <g id="text_7">
      <!-- −1.0 -->
      <g transform="translate(20.878125 320.37768) scale(0.1 -0.1)">
       <use xlink:href="#DejaVuSans-2212"/>
       <use xlink:href="#DejaVuSans-31" transform="translate(83.789062 0)"/>
       <use xlink:href="#DejaVuSans-2e" transform="translate(147.412109 0)"/>
       <use xlink:href="#DejaVuSans-30" transform="translate(179.199219 0)"/>
      </g>
     </g>
    </g>
    <g id="ytick_2">
     <g id="line2d_7">
      <g>
       <use xlink:href="#m8df7aabcec" x="52.160938" y="252.609231" style="stroke: #000000; stroke-width: 0.8"/>
      </g>
     </g>
     <g id="text_8">
      <!-- −0.5 -->
      <g transform="translate(20.878125 256.40845) scale(0.1 -0.1)">
       <use xlink:href="#DejaVuSans-2212"/>
       <use xlink:href="#DejaVuSans-30" transform="translate(83.789062 0)"/>
       <use xlink:href="#DejaVuSans-2e" transform="translate(147.412109 0)"/>
       <use xlink:href="#DejaVuSans-35" transform="translate(179.199219 0)"/>
      </g>
     </g>
    </g>
    <g id="ytick_3">
     <g id="line2d_8">
      <g>
       <use xlink:href="#m8df7aabcec" x="52.160938" y="188.64" style="stroke: #000000; stroke-width: 0.8"/>
      </g>
     </g>
     <g id="text_9">
      <!-- 0.0 -->
      <g transform="translate(29.257812 192.439219) scale(0.1 -0.1)">
       <use xlink:href="#DejaVuSans-30"/>
       <use xlink:href="#DejaVuSans-2e" transform="translate(63.623047 0)"/>
       <use xlink:href="#DejaVuSans-30" transform="translate(95.410156 0)"/>
      </g>
     </g>
    </g>
    <g id="ytick_4">
     <g id="line2d_9">
      <g>
       <use xlink:href="#m8df7aabcec" x="52.160938" y="124.670769" style="stroke: #000000; stroke-width: 0.8"/>
      </g>
     </g>
     <g id="text_10">
      <!-- 0.5 -->
      <g transform="translate(29.257812 128.469988) scale(0.1 -0.1)">
       <use xlink:href="#DejaVuSans-30"/>
       <use xlink:href="#DejaVuSans-2e" transform="translate(63.623047 0)"/>
       <use xlink:href="#DejaVuSans-35" transform="translate(95.410156 0)"/>
      </g>
     </g>
    </g>
    <g id="ytick_5">
     <g id="line2d_10">
      <g>
       <use xlink:href="#m8df7aabcec" x="52.160938" y="60.701538" style="stroke: #000000; stroke-width: 0.8"/>
      </g>
     </g>
     <g id="text_11">
      <!-- 1.0 -->
      <g transform="translate(29.257812 64.500757) scale(0.1 -0.1)">
       <use xlink:href="#DejaVuSans-31"/>
       <use xlink:href="#DejaVuSans-2e" transform="translate(63.623047 0)"/>
       <use xlink:href="#DejaVuSans-30" transform="translate(95.410156 0)"/>
      </g>
     </g>
    </g>
    <g id="text_12">
     <!-- $x_3$ (vertical) -->
     <g transform="translate(14.798437 218.14) rotate(-90) scale(0.1 -0.1)">
      <defs>
       <path id="DejaVuSans-33" d="M 2597 2516 
Q 3050 2419 3304 2112 
Q 3559 1806 3559 1356 
Q 3559 666 3084 287 
Q 2609 -91 1734 -91 
Q 1441 -91 1130 -33 
Q 819 25 488 141 
L 488 750 
Q 750 597 1062 519 
Q 1375 441 1716 441 
Q 2309 441 2620 675 
Q 2931 909 2931 1356 
Q 2931 1769 2642 2001 
Q 2353 2234 1838 2234 
L 1294 2234 
L 1294 2753 
L 1863 2753 
Q 2328 2753 2575 2939 
Q 2822 3125 2822 3475 
Q 2822 3834 2567 4026 
Q 2313 4219 1838 4219 
Q 1578 4219 1281 4162 
Q 984 4106 628 3988 
L 628 4550 
Q 988 4650 1302 4700 
Q 1616 4750 1894 4750 
Q 2613 4750 3031 4423 
Q 3450 4097 3450 3541 
Q 3450 3153 3228 2886 
Q 3006 2619 2597 2516 
z
" transform="scale(0.015625)"/>
       <path id="DejaVuSans-76" d="M 191 3500 
L 800 3500 
L 1894 563 
L 2988 3500 
L 3597 3500 
L 2284 0 
L 1503 0 
L 191 3500 
z
" transform="scale(0.015625)"/>
       <path id="DejaVuSans-65" d="M 3597 1894 
L 3597 1613 
L 953 1613 
Q 991 1019 1311 708 
Q 1631 397 2203 397 
Q 2534 397 2845 478 
Q 3156 559 3463 722 
L 3463 178 
Q 3153 47 2828 -22 
Q 2503 -91 2169 -91 
Q 1331 -91 842 396 
Q 353 884 353 1716 
Q 353 2575 817 3079 
Q 1281 3584 2069 3584 
Q 2775 3584 3186 3129 
Q 3597 2675 3597 1894 
z
M 3022 2063 
Q 3016 2534 2758 2815 
Q 2500 3097 2075 3097 
Q 1594 3097 1305 2825 
Q 1016 2553 972 2059 
L 3022 2063 
z
" transform="scale(0.015625)"/>
       <path id="DejaVuSans-63" d="M 3122 3366 
L 3122 2828 
Q 2878 2963 2633 3030 
Q 2388 3097 2138 3097 
Q 1578 3097 1268 2742 
Q 959 2388 959 1747 
Q 959 1106 1268 751 
Q 1578 397 2138 397 
Q 2388 397 2633 464 
Q 2878 531 3122 666 
L 3122 134 
Q 2881 22 2623 -34 
Q 2366 -91 2075 -91 
Q 1284 -91 818 406 
Q 353 903 353 1747 
Q 353 2603 823 3093 
Q 1294 3584 2113 3584 
Q 2378 3584 2631 3529 
Q 2884 3475 3122 3366 
z
" transform="scale(0.015625)"/>
      </defs>
      <use xlink:href="#DejaVuSans-Oblique-78" transform="translate(0 0.015625)"/>
      <use xlink:href="#DejaVuSans-33" transform="translate(59.179688 -16.390625) scale(0.7)"/>
      <use xlink:href="#DejaVuSans-20" transform="translate(106.450195 0.015625)"/>
      <use xlink:href="#DejaVuSans-28" transform="translate(138.237305 0.015625)"/>
      <use xlink:href="#DejaVuSans-76" transform="translate(177.250977 0.015625)"/>
      <use xlink:href="#DejaVuSans-65" transform="translate(236.430664 0.015625)"/>
      <use xlink:href="#DejaVuSans-72" transform="translate(297.954102 0.015625)"/>
      <use xlink:href="#DejaVuSans-74" transform="translate(339.067383 0.015625)"/>
      <use xlink:href="#DejaVuSans-69" transform="translate(378.276367 0.015625)"/>
      <use xlink:href="#DejaVuSans-63" transform="translate(406.05957 0.015625)"/>
      <use xlink:href="#DejaVuSans-61" transform="translate(461.040039 0.015625)"/>
      <use xlink:href="#DejaVuSans-6c" transform="translate(522.319336 0.015625)"/>
      <use xlink:href="#DejaVuSans-29" transform="translate(550.102539 0.015625)"/>
     </g>
    </g>
   </g>
   <g id="line2d_11">
    <path d="M 333.625553 188.64 
L 333.482813 182.59818 
L 333.05491 176.569841 
L 332.3428 170.568436 
L 331.348072 164.607355 
L 330.072944 158.699901 
L 328.520264 152.859255 
L 326.693494 147.098449 
L 324.596712 141.430339 
L 322.234596 135.867573 
L 319.612417 130.422562 
L 316.736026 125.107457 
L 313.611842 119.934118 
L 310.246835 114.914088 
L 306.648514 110.05857 
L 302.824909 105.378398 
L 298.784552 100.884015 
L 294.536457 96.58545 
L 290.090105 92.492295 
L 285.455417 88.613683 
L 280.642735 84.958269 
L 275.662797 81.534209 
L 270.526716 78.349144 
L 265.245953 75.410181 
L 259.83229 72.723878 
L 254.297809 70.296229 
L 248.654857 68.132652 
L 242.916028 66.237973 
L 237.094127 64.616421 
L 231.202144 63.271615 
L 225.253227 62.206554 
L 219.260651 61.423616 
L 213.237786 60.924547 
L 207.198073 60.710461 
L 201.154989 60.781836 
L 195.122017 61.138513 
L 189.11262 61.779696 
L 183.140207 62.703953 
L 177.218105 63.909223 
L 171.359529 65.392816 
L 165.577551 67.151422 
L 159.885073 69.181116 
L 154.294797 71.477369 
L 148.819197 74.035059 
L 143.470492 76.848477 
L 138.260616 79.911345 
L 133.201196 83.21683 
L 128.303519 86.757554 
L 123.578516 90.525619 
L 119.036729 94.512615 
L 114.688293 98.709646 
L 110.542911 103.107346 
L 106.609832 107.695904 
L 102.897834 112.46508 
L 99.415199 117.404231 
L 96.169698 122.502337 
L 93.168573 127.748023 
L 90.41852 133.129582 
L 87.925678 138.635007 
L 85.695606 144.252012 
L 83.733283 149.968064 
L 82.043087 155.770409 
L 80.628788 161.646098 
L 79.493544 167.582021 
L 78.639886 173.564933 
L 78.069721 179.581484 
L 77.78432 185.618247 
L 77.78432 191.661753 
L 78.069721 197.698516 
L 78.639886 203.715067 
L 79.493544 209.697979 
L 80.628788 215.633902 
L 82.043087 221.509591 
L 83.733283 227.311936 
L 85.695606 233.027988 
L 87.925678 238.644993 
L 90.41852 244.150418 
L 93.168573 249.531977 
L 96.169698 254.777663 
L 99.415199 259.875769 
L 102.897834 264.81492 
L 106.609832 269.584096 
L 110.542911 274.172654 
L 114.688293 278.570354 
L 119.036729 282.767385 
L 123.578516 286.754381 
L 128.303519 290.522446 
L 133.201196 294.06317 
L 138.260616 297.368655 
L 143.470492 300.431523 
L 148.819197 303.244941 
L 154.294797 305.802631 
L 159.885073 308.098884 
L 165.577551 310.128578 
L 171.359529 311.887184 
L 177.218105 313.370777 
L 183.140207 314.576047 
L 189.11262 315.500304 
L 195.122017 316.141487 
L 201.154989 316.498164 
L 207.198073 316.569539 
L 213.237786 316.355453 
L 219.260651 315.856384 
L 225.253227 315.073446 
L 231.202144 314.008385 
L 237.094127 312.663579 
L 242.916028 311.042027 
L 248.654857 309.147348 
L 254.297809 306.983771 
L 259.83229 304.556122 
L 265.245953 301.869819 
L 270.526716 298.930856 
L 275.662797 295.745791 
L 280.642735 292.321731 
L 285.455417 288.666317 
L 290.090105 284.787705 
L 294.536457 280.69455 
L 298.784552 276.395985 
L 302.824909 271.901602 
L 306.648514 267.22143 
L 310.246835 262.365912 
L 313.611842 257.345882 
L 316.736026 252.172543 
L 319.612417 246.857438 
L 322.234596 241.412427 
L 324.596712 235.849661 
L 326.693494 230.181551 
L 328.520264 224.420745 
L 330.072944 218.580099 
L 331.348072 212.672645 
L 332.3428 206.711564 
L 333.05491 200.710159 
L 333.482813 194.68182 
L 333.625553 188.64 
L 333.625553 188.64 
" clip-path="url(#pfb45878e75)" style="fill: none; stroke: #0000ff; stroke-width: 1.5; stroke-linecap: square"/>
   </g>
   <g id="line2d_12">
    <path d="M 52.160938 316.578462 
L 359.213245 316.578462 
" clip-path="url(#pfb45878e75)" style="fill: none; stroke-dasharray: 3.7,1.6; stroke-dashoffset: 0; stroke: #f08080"/>
   </g>
   <g id="line2d_13">
    <path d="M 205.687091 60.701538 
L 311.674783 316.578462 
" clip-path="url(#pfb45878e75)" style="fill: none; stroke: #800080; stroke-width: 1.2; stroke-linecap: square"/>
   </g>
   <g id="line2d_14">
    <path d="M 205.687091 279.106154 
L 296.153245 279.106154 
" clip-path="url(#pfb45878e75)" style="fill: none; stroke-dasharray: 1,1.65; stroke-dashoffset: 0; stroke: #808080"/>
   </g>
   <g id="line2d_15">
    <path d="M 205.687091 316.578462 
L 311.674783 316.578462 
" clip-path="url(#pfb45878e75)" style="fill: none; stroke-dasharray: 1,1.65; stroke-dashoffset: 0; stroke: #808080"/>
   </g>
   <g id="line2d_16">
    <path d="M 52.160938 188.64 
L 359.213245 188.64 
" clip-path="url(#pfb45878e75)" style="fill: none; stroke: #808080; stroke-width: 0.5; stroke-linecap: square"/>
   </g>
   <g id="line2d_17">
    <path d="M 205.687091 354.96 
L 205.687091 22.32 
" clip-path="url(#pfb45878e75)" style="fill: none; stroke: #808080; stroke-width: 0.5; stroke-linecap: square"/>
   </g>
   <g id="patch_3">
    <path d="M 52.160938 354.96 
L 52.160938 22.32 
" style="fill: none; stroke: #000000; stroke-width: 0.8; stroke-linejoin: miter; stroke-linecap: square"/>
   </g>
   <g id="patch_4">
    <path d="M 359.213245 354.96 
L 359.213245 22.32 
" style="fill: none; stroke: #000000; stroke-width: 0.8; stroke-linejoin: miter; stroke-linecap: square"/>
   </g>
   <g id="patch_5">
    <path d="M 52.160938 354.96 
L 359.213245 354.96 
" style="fill: none; stroke: #000000; stroke-width: 0.8; stroke-linejoin: miter; stroke-linecap: square"/>
   </g>
   <g id="patch_6">
    <path d="M 52.160938 22.32 
L 359.213245 22.32 
" style="fill: none; stroke: #000000; stroke-width: 0.8; stroke-linejoin: miter; stroke-linecap: square"/>
   </g>
   <g id="text_13">
    <!-- $S_1$ -->
    <g transform="translate(212.084014 58.205913) scale(0.12 -0.12)">
     <defs>
      <path id="DejaVuSans-Oblique-53" d="M 3859 4513 
L 3738 3897 
Q 3422 4066 3111 4152 
Q 2800 4238 2509 4238 
Q 1944 4238 1609 3991 
Q 1275 3744 1275 3334 
Q 1275 3109 1398 2989 
Q 1522 2869 2034 2731 
L 2413 2638 
Q 3053 2472 3303 2217 
Q 3553 1963 3553 1503 
Q 3553 797 2998 353 
Q 2444 -91 1538 -91 
Q 1166 -91 791 -17 
Q 416 56 38 206 
L 166 856 
Q 513 641 861 531 
Q 1209 422 1556 422 
Q 2147 422 2503 684 
Q 2859 947 2859 1369 
Q 2859 1650 2717 1795 
Q 2575 1941 2106 2059 
L 1728 2156 
Q 1081 2325 845 2545 
Q 609 2766 609 3163 
Q 609 3859 1145 4304 
Q 1681 4750 2541 4750 
Q 2875 4750 3203 4690 
Q 3531 4631 3859 4513 
z
" transform="scale(0.015625)"/>
     </defs>
     <use xlink:href="#DejaVuSans-Oblique-53" transform="translate(0 0.78125)"/>
     <use xlink:href="#DejaVuSans-31" transform="translate(63.476562 -15.625) scale(0.7)"/>
    </g>
   </g>
   <g id="text_14">
    <!-- $S_2$ -->
    <g transform="translate(212.084014 332.09351) scale(0.12 -0.12)">
     <defs>
      <path id="DejaVuSans-32" d="M 1228 531 
L 3431 531 
L 3431 0 
L 469 0 
L 469 531 
Q 828 903 1448 1529 
Q 2069 2156 2228 2338 
Q 2531 2678 2651 2914 
Q 2772 3150 2772 3378 
Q 2772 3750 2511 3984 
Q 2250 4219 1831 4219 
Q 1534 4219 1204 4116 
Q 875 4013 500 3803 
L 500 4441 
Q 881 4594 1212 4672 
Q 1544 4750 1819 4750 
Q 2544 4750 2975 4387 
Q 3406 4025 3406 3419 
Q 3406 3131 3298 2873 
Q 3191 2616 2906 2266 
Q 2828 2175 2409 1742 
Q 1991 1309 1228 531 
z
" transform="scale(0.015625)"/>
     </defs>
     <use xlink:href="#DejaVuSans-Oblique-53" transform="translate(0 0.78125)"/>
     <use xlink:href="#DejaVuSans-32" transform="translate(63.476562 -15.625) scale(0.7)"/>
    </g>
   </g>
   <g id="text_15">
    <!-- $P$ -->
    <g style="fill: #ff0000" transform="translate(302.550168 276.610529) scale(0.12 -0.12)">
     <defs>
      <path id="DejaVuSans-Oblique-50" d="M 1081 4666 
L 2541 4666 
Q 3178 4666 3512 4369 
Q 3847 4072 3847 3500 
Q 3847 2731 3353 2303 
Q 2859 1875 1966 1875 
L 1172 1875 
L 806 0 
L 172 0 
L 1081 4666 
z
M 1613 4147 
L 1275 2394 
L 2069 2394 
Q 2606 2394 2893 2669 
Q 3181 2944 3181 3456 
Q 3181 3784 2986 3965 
Q 2791 4147 2438 4147 
L 1613 4147 
z
" transform="scale(0.015625)"/>
     </defs>
     <use xlink:href="#DejaVuSans-Oblique-50" transform="translate(0 0.09375)"/>
    </g>
   </g>
   <g id="text_16">
    <!-- $Y'$ -->
    <g style="fill: #008000" transform="translate(318.071706 332.09351) scale(0.12 -0.12)">
     <defs>
      <path id="DejaVuSans-Oblique-59" d="M 403 4666 
L 1081 4666 
L 1953 2747 
L 3616 4666 
L 4325 4666 
L 2209 2222 
L 1778 0 
L 1147 0 
L 1575 2222 
L 403 4666 
z
" transform="scale(0.015625)"/>
      <path id="Cmsy10-30" d="M 225 347 
Q 184 359 184 409 
L 966 3316 
Q 1003 3434 1093 3506 
Q 1184 3578 1300 3578 
Q 1450 3578 1564 3479 
Q 1678 3381 1678 3231 
Q 1678 3166 1644 3084 
L 488 319 
Q 466 275 428 275 
Q 394 275 320 306 
Q 247 338 225 347 
z
" transform="scale(0.015625)"/>
     </defs>
     <use xlink:href="#DejaVuSans-Oblique-59" transform="translate(0 0.584375)"/>
     <use xlink:href="#Cmsy10-30" transform="translate(68.100755 38.865625) scale(0.7)"/>
    </g>
   </g>
   <g id="text_17">
    <!-- $h_1$ -->
    <g style="fill: #808080" transform="translate(192.893245 281.865529) scale(0.1 -0.1)">
     <defs>
      <path id="DejaVuSans-Oblique-68" d="M 3566 2113 
L 3156 0 
L 2578 0 
L 2988 2091 
Q 3016 2238 3031 2350 
Q 3047 2463 3047 2528 
Q 3047 2791 2881 2937 
Q 2716 3084 2419 3084 
Q 1956 3084 1617 2771 
Q 1278 2459 1178 1941 
L 800 0 
L 225 0 
L 1172 4863 
L 1747 4863 
L 1375 2950 
Q 1594 3244 1934 3414 
Q 2275 3584 2650 3584 
Q 3113 3584 3367 3334 
Q 3622 3084 3622 2631 
Q 3622 2519 3608 2391 
Q 3594 2263 3566 2113 
z
" transform="scale(0.015625)"/>
     </defs>
     <use xlink:href="#DejaVuSans-Oblique-68" transform="translate(0 0.015625)"/>
     <use xlink:href="#DejaVuSans-31" transform="translate(63.378906 -16.390625) scale(0.7)"/>
    </g>
   </g>
   <g id="text_18">
    <!-- $h_2$ -->
    <g style="fill: #808080" transform="translate(180.099399 319.337837) scale(0.1 -0.1)">
     <use xlink:href="#DejaVuSans-Oblique-68" transform="translate(0 0.015625)"/>
     <use xlink:href="#DejaVuSans-32" transform="translate(63.378906 -16.390625) scale(0.7)"/>
    </g>
   </g>
   <g id="text_19">
    <!-- Vertical slice of the sphere at $x_2 = 0$ -->
    <g transform="translate(98.047091 16.32) scale(0.12 -0.12)">
     <defs>
      <path id="DejaVuSans-56" d="M 1831 0 
L 50 4666 
L 709 4666 
L 2188 738 
L 3669 4666 
L 4325 4666 
L 2547 0 
L 1831 0 
z
" transform="scale(0.015625)"/>
      <path id="DejaVuSans-73" d="M 2834 3397 
L 2834 2853 
Q 2591 2978 2328 3040 
Q 2066 3103 1784 3103 
Q 1356 3103 1142 2972 
Q 928 2841 928 2578 
Q 928 2378 1081 2264 
Q 1234 2150 1697 2047 
L 1894 2003 
Q 2506 1872 2764 1633 
Q 3022 1394 3022 966 
Q 3022 478 2636 193 
Q 2250 -91 1575 -91 
Q 1294 -91 989 -36 
Q 684 19 347 128 
L 347 722 
Q 666 556 975 473 
Q 1284 391 1588 391 
Q 1994 391 2212 530 
Q 2431 669 2431 922 
Q 2431 1156 2273 1281 
Q 2116 1406 1581 1522 
L 1381 1569 
Q 847 1681 609 1914 
Q 372 2147 372 2553 
Q 372 3047 722 3315 
Q 1072 3584 1716 3584 
Q 2034 3584 2315 3537 
Q 2597 3491 2834 3397 
z
" transform="scale(0.015625)"/>
      <path id="DejaVuSans-66" d="M 2375 4863 
L 2375 4384 
L 1825 4384 
Q 1516 4384 1395 4259 
Q 1275 4134 1275 3809 
L 1275 3500 
L 2222 3500 
L 2222 3053 
L 1275 3053 
L 1275 0 
L 697 0 
L 697 3053 
L 147 3053 
L 147 3500 
L 697 3500 
L 697 3744 
Q 697 4328 969 4595 
Q 1241 4863 1831 4863 
L 2375 4863 
z
" transform="scale(0.015625)"/>
      <path id="DejaVuSans-70" d="M 1159 525 
L 1159 -1331 
L 581 -1331 
L 581 3500 
L 1159 3500 
L 1159 2969 
Q 1341 3281 1617 3432 
Q 1894 3584 2278 3584 
Q 2916 3584 3314 3078 
Q 3713 2572 3713 1747 
Q 3713 922 3314 415 
Q 2916 -91 2278 -91 
Q 1894 -91 1617 61 
Q 1341 213 1159 525 
z
M 3116 1747 
Q 3116 2381 2855 2742 
Q 2594 3103 2138 3103 
Q 1681 3103 1420 2742 
Q 1159 2381 1159 1747 
Q 1159 1113 1420 752 
Q 1681 391 2138 391 
Q 2594 391 2855 752 
Q 3116 1113 3116 1747 
z
" transform="scale(0.015625)"/>
      <path id="DejaVuSans-3d" d="M 678 2906 
L 4684 2906 
L 4684 2381 
L 678 2381 
L 678 2906 
z
M 678 1631 
L 4684 1631 
L 4684 1100 
L 678 1100 
L 678 1631 
z
" transform="scale(0.015625)"/>
     </defs>
     <use xlink:href="#DejaVuSans-56" transform="translate(0 0.015625)"/>
     <use xlink:href="#DejaVuSans-65" transform="translate(68.408203 0.015625)"/>
     <use xlink:href="#DejaVuSans-72" transform="translate(129.931641 0.015625)"/>
     <use xlink:href="#DejaVuSans-74" transform="translate(171.044922 0.015625)"/>
     <use xlink:href="#DejaVuSans-69" transform="translate(210.253906 0.015625)"/>
     <use xlink:href="#DejaVuSans-63" transform="translate(238.037109 0.015625)"/>
     <use xlink:href="#DejaVuSans-61" transform="translate(293.017578 0.015625)"/>
     <use xlink:href="#DejaVuSans-6c" transform="translate(354.296875 0.015625)"/>
     <use xlink:href="#DejaVuSans-20" transform="translate(382.080078 0.015625)"/>
     <use xlink:href="#DejaVuSans-73" transform="translate(413.867188 0.015625)"/>
     <use xlink:href="#DejaVuSans-6c" transform="translate(465.966797 0.015625)"/>
     <use xlink:href="#DejaVuSans-69" transform="translate(493.75 0.015625)"/>
     <use xlink:href="#DejaVuSans-63" transform="translate(521.533203 0.015625)"/>
     <use xlink:href="#DejaVuSans-65" transform="translate(576.513672 0.015625)"/>
     <use xlink:href="#DejaVuSans-20" transform="translate(638.037109 0.015625)"/>
     <use xlink:href="#DejaVuSans-6f" transform="translate(669.824219 0.015625)"/>
     <use xlink:href="#DejaVuSans-66" transform="translate(731.005859 0.015625)"/>
     <use xlink:href="#DejaVuSans-20" transform="translate(766.210938 0.015625)"/>
     <use xlink:href="#DejaVuSans-74" transform="translate(797.998047 0.015625)"/>
     <use xlink:href="#DejaVuSans-68" transform="translate(837.207031 0.015625)"/>
     <use xlink:href="#DejaVuSans-65" transform="translate(900.585938 0.015625)"/>
     <use xlink:href="#DejaVuSans-20" transform="translate(962.109375 0.015625)"/>
     <use xlink:href="#DejaVuSans-73" transform="translate(993.896484 0.015625)"/>
     <use xlink:href="#DejaVuSans-70" transform="translate(1045.996094 0.015625)"/>
     <use xlink:href="#DejaVuSans-68" transform="translate(1109.472656 0.015625)"/>
     <use xlink:href="#DejaVuSans-65" transform="translate(1172.851562 0.015625)"/>
     <use xlink:href="#DejaVuSans-72" transform="translate(1234.375 0.015625)"/>
     <use xlink:href="#DejaVuSans-65" transform="translate(1275.488281 0.015625)"/>
     <use xlink:href="#DejaVuSans-20" transform="translate(1337.011719 0.015625)"/>
     <use xlink:href="#DejaVuSans-61" transform="translate(1368.798828 0.015625)"/>
     <use xlink:href="#DejaVuSans-74" transform="translate(1430.078125 0.015625)"/>
     <use xlink:href="#DejaVuSans-20" transform="translate(1469.287109 0.015625)"/>
     <use xlink:href="#DejaVuSans-Oblique-78" transform="translate(1501.074219 0.015625)"/>
     <use xlink:href="#DejaVuSans-32" transform="translate(1560.253906 -16.390625) scale(0.7)"/>
     <use xlink:href="#DejaVuSans-3d" transform="translate(1627.006836 0.015625)"/>
     <use xlink:href="#DejaVuSans-30" transform="translate(1730.27832 0.015625)"/>
    </g>
   </g>
   <g id="PathCollection_1">
    <defs>
     <path id="mfa9ce32619" d="M 0 3.872983 
C 1.027127 3.872983 2.012324 3.464901 2.738613 2.738613 
C 3.464901 2.012324 3.872983 1.027127 3.872983 0 
C 3.872983 -1.027127 3.464901 -2.012324 2.738613 -2.738613 
C 2.012324 -3.464901 1.027127 -3.872983 0 -3.872983 
C -1.027127 -3.872983 -2.012324 -3.464901 -2.738613 -2.738613 
C -3.464901 -2.012324 -3.872983 -1.027127 -3.872983 0 
C -3.872983 1.027127 -3.464901 2.012324 -2.738613 2.738613 
C -2.012324 3.464901 -1.027127 3.872983 0 3.872983 
z
" style="stroke: #000000"/>
    </defs>
    <g clip-path="url(#pfb45878e75)">
     <use xlink:href="#mfa9ce32619" x="205.687091" y="60.701538" style="stroke: #000000"/>
    </g>
   </g>
   <g id="PathCollection_2">
    <g clip-path="url(#pfb45878e75)">
     <use xlink:href="#mfa9ce32619" x="205.687091" y="316.578462" style="stroke: #000000"/>
    </g>
   </g>
   <g id="PathCollection_3">
    <defs>
     <path id="mbd3982a076" d="M 0 3.872983 
C 1.027127 3.872983 2.012324 3.464901 2.738613 2.738613 
C 3.464901 2.012324 3.872983 1.027127 3.872983 0 
C 3.872983 -1.027127 3.464901 -2.012324 2.738613 -2.738613 
C 2.012324 -3.464901 1.027127 -3.872983 0 -3.872983 
C -1.027127 -3.872983 -2.012324 -3.464901 -2.738613 -2.738613 
C -3.464901 -2.012324 -3.872983 -1.027127 -3.872983 0 
C -3.872983 1.027127 -3.464901 2.012324 -2.738613 2.738613 
C -2.012324 3.464901 -1.027127 3.872983 0 3.872983 
z
" style="stroke: #ff0000"/>
    </defs>
    <g clip-path="url(#pfb45878e75)">
     <use xlink:href="#mbd3982a076" x="296.153245" y="279.106154" style="fill: #ff0000; stroke: #ff0000"/>
    </g>
   </g>
   <g id="PathCollection_4">
    <defs>
     <path id="me4eaeae611" d="M 0 3.872983 
C 1.027127 3.872983 2.012324 3.464901 2.738613 2.738613 
C 3.464901 2.012324 3.872983 1.027127 3.872983 0 
C 3.872983 -1.027127 3.464901 -2.012324 2.738613 -2.738613 
C 2.012324 -3.464901 1.027127 -3.872983 0 -3.872983 
C -1.027127 -3.872983 -2.012324 -3.464901 -2.738613 -2.738613 
C -3.464901 -2.012324 -3.872983 -1.027127 -3.872983 0 
C -3.872983 1.027127 -3.464901 2.012324 -2.738613 2.738613 
C -2.012324 3.464901 -1.027127 3.872983 0 3.872983 
z
" style="stroke: #008000"/>
    </defs>
    <g clip-path="url(#pfb45878e75)">
     <use xlink:href="#me4eaeae611" x="311.674783" y="316.578462" style="fill: #008000; stroke: #008000"/>
    </g>
   </g>
  </g>
 </g>
 <defs>
  <clipPath id="pfb45878e75">
   <rect x="52.160938" y="22.32" width="307.052308" height="332.64"/>
  </clipPath>
 </defs>
</svg>
