<?xml version="1.0" standalone="no"?>
<!DOCTYPE svg PUBLIC "-//W3C//DTD SVG 20010904//EN"
 "http://www.w3.org/TR/2001/REC-SVG-20010904/DTD/svg10.dtd">
<svg version="1.0" xmlns="http://www.w3.org/2000/svg"
 width="1320.000000pt" height="790.000000pt" viewBox="0 0 1320.000000 790.000000"
 preserveAspectRatio="xMidYMid meet">
<metadata>
Created by potrace 1.16, written by Peter Selinger 2001-2019
</metadata>
<g transform="translate(0.000000,790.000000) scale(0.100000,-0.100000)"
fill="#000000" stroke="none">
<path d="M6365 7848 c-7 -20 -95 -439 -95 -455 0 -10 27 -13 129 -13 140 0
171 7 214 48 59 56 76 138 37 180 -26 27 -26 28 10 69 41 46 43 117 4 154 -24
23 -34 24 -160 27 -105 3 -135 1 -139 -10z m225 -61 c38 -19 38 -60 1 -97 -28
-28 -34 -30 -110 -30 -58 0 -81 4 -81 13 1 13 18 95 25 115 6 16 132 16 165
-1z m-32 -198 c51 -18 54 -75 5 -121 -21 -20 -37 -24 -110 -27 -47 -2 -89 1
-93 5 -8 8 14 126 26 146 8 12 136 10 172 -3z"/>
<path d="M4296 7672 c-3 -5 -10 -38 -17 -75 -12 -66 -23 -79 -47 -55 -19 19
-104 14 -143 -8 -46 -27 -95 -103 -109 -170 -22 -105 26 -180 115 -178 24 0
56 9 71 19 19 12 29 14 32 7 2 -7 16 -12 32 -12 21 0 29 6 33 23 9 32 97 447
97 452 0 8 -59 5 -64 -3z m-79 -198 c23 -23 25 -31 20 -75 -12 -97 -79 -169
-142 -153 -33 8 -45 32 -45 91 0 60 25 111 69 140 44 30 66 29 98 -3z"/>
<path d="M3032 7569 c-77 -38 -105 -150 -52 -203 28 -28 99 -28 136 0 49 36
67 70 68 123 1 42 4 51 21 53 11 2 20 11 20 21 0 15 -11 18 -76 22 -62 3 -84
0 -117 -16z m83 -33 c22 -15 24 -70 6 -105 -28 -52 -89 -63 -112 -19 -16 29 4
91 38 117 30 25 43 26 68 7z"/>
<path d="M4752 7569 c-77 -38 -105 -150 -52 -203 28 -28 99 -28 136 0 49 36
67 70 68 123 1 42 4 51 21 53 11 2 20 11 20 21 0 15 -11 18 -76 22 -62 3 -84
0 -117 -16z m83 -33 c22 -15 24 -70 6 -105 -28 -52 -89 -63 -112 -19 -16 29 4
91 38 117 30 25 43 26 68 7z"/>
<path d="M2650 7545 c0 -3 16 -37 35 -75 19 -38 35 -77 35 -86 0 -9 -34 -53
-75 -99 -42 -46 -72 -85 -68 -88 4 -3 24 -2 44 2 27 4 47 19 79 56 23 28 47
51 51 53 5 2 21 -21 35 -51 24 -49 31 -56 61 -59 19 -2 36 -1 39 4 3 4 -11 42
-31 84 -19 42 -35 82 -35 88 0 6 29 43 65 81 35 39 64 76 65 83 0 7 -13 12
-31 12 -26 0 -42 -11 -84 -57 -53 -58 -53 -58 -78 0 -25 56 -27 57 -66 57 -23
0 -41 -2 -41 -5z"/>
<path d="M4380 7545 c0 -3 16 -37 35 -75 19 -38 35 -77 35 -86 0 -9 -34 -53
-75 -99 -42 -46 -72 -85 -68 -88 4 -3 24 -2 44 2 27 4 47 19 79 56 23 28 47
51 51 53 5 2 21 -21 35 -51 24 -49 31 -56 61 -59 19 -2 36 -1 39 4 3 4 -11 42
-31 84 -19 42 -35 82 -35 88 0 6 29 43 65 81 35 39 64 76 65 83 0 7 -13 12
-31 12 -26 0 -42 -11 -84 -57 -53 -58 -53 -58 -78 0 -25 56 -27 57 -66 57 -23
0 -41 -2 -41 -5z"/>
<path d="M3528 7473 c-3 -68 -3 -68 -70 -71 -68 -3 -68 -3 -68 -32 0 -29 0
-29 68 -32 67 -3 67 -3 70 -70 3 -68 3 -68 32 -68 29 0 29 0 32 68 3 67 3 67
71 70 67 3 67 3 67 32 0 29 0 29 -67 32 -68 3 -68 3 -71 71 -3 67 -3 67 -32
67 -29 0 -29 0 -32 -67z"/>
<path d="M8140 7209 c-36 -11 -164 -49 -285 -85 -268 -80 -798 -254 -1033
-340 -173 -63 -173 -63 -209 -38 -44 30 -74 30 -124 2 -38 -21 -40 -21 -92 -5
-348 115 -832 255 -1252 363 -293 75 -325 81 -325 65 0 -16 8 -18 236 -76 365
-91 834 -224 1232 -350 149 -48 152 -49 152 -77 0 -18 -6 -31 -17 -34 -52 -17
-463 -183 -623 -251 -610 -262 -1235 -575 -1783 -895 -580 -338 -1141 -719
-1649 -1119 -134 -106 -140 -110 -170 -100 -17 6 -48 8 -69 5 -37 -6 -40 -4
-220 152 -510 443 -994 918 -1344 1317 -106 121 -127 138 -140 117 -9 -15 303
-349 659 -706 335 -335 555 -539 833 -778 141 -120 153 -133 146 -156 -4 -14
-7 -43 -8 -66 0 -35 -6 -46 -35 -70 -378 -310 -951 -866 -1331 -1294 -214
-240 -479 -560 -479 -578 0 -31 24 -13 91 70 457 568 1003 1136 1554 1618 232
204 218 194 254 176 40 -21 69 -20 108 3 31 20 31 20 168 -90 75 -60 232 -181
348 -268 1069 -799 2212 -1461 3527 -2042 166 -73 175 -78 178 -107 3 -29 3
-29 -200 -99 -859 -297 -1703 -536 -2568 -728 -140 -31 -259 -60 -264 -65 -12
-12 4 -32 21 -26 8 3 117 29 241 57 895 200 1748 440 2524 711 258 90 258 90
290 67 43 -31 97 -31 138 0 32 23 32 23 218 -53 707 -284 1411 -526 2230 -765
133 -39 247 -71 253 -71 6 0 9 7 7 16 -2 12 -26 23 -73 36 -681 184 -1600 494
-2341 789 -243 97 -255 103 -252 127 2 20 14 28 58 45 30 11 162 62 292 113
1484 586 2848 1341 4033 2234 185 140 185 140 218 120 38 -24 68 -25 107 -5
29 15 29 15 207 -133 389 -323 685 -595 1028 -943 199 -203 439 -460 527 -567
27 -33 42 -39 53 -23 7 12 -115 149 -406 456 -276 292 -585 588 -909 871 -164
143 -420 354 -437 361 -11 4 -14 15 -9 43 3 21 1 52 -6 70 -10 31 -9 34 18 54
42 31 311 254 439 365 276 239 777 711 783 738 8 34 -34 0 -216 -176 -301
-288 -624 -575 -928 -823 -130 -106 -132 -107 -167 -97 -27 7 -45 6 -72 -5
-37 -16 -37 -16 -103 37 -141 112 -446 329 -712 507 -1084 724 -2306 1324
-3670 1801 -161 57 -164 68 -30 117 364 133 1007 341 1320 427 74 20 141 39
148 41 19 5 14 34 -5 33 -10 0 -47 -10 -83 -20z m-1278 -658 c1606 -574 2943
-1274 4171 -2184 187 -139 187 -139 181 -191 -4 -28 -9 -54 -13 -57 -3 -4 -96
-74 -206 -156 -1177 -882 -2507 -1617 -3975 -2197 -162 -64 -310 -124 -329
-132 -31 -14 -35 -14 -55 4 -53 49 -96 54 -149 17 -37 -24 -37 -24 -279 84
-722 323 -1297 618 -1928 989 -633 373 -1305 834 -1866 1279 -142 113 -151
122 -150 154 0 19 -3 43 -7 54 -6 18 19 41 181 167 1113 867 2367 1575 3806
2149 206 82 206 82 231 57 45 -46 108 -44 153 3 15 16 30 29 34 29 4 0 94 -31
200 -69z"/>
<path d="M502 6379 c-77 -38 -105 -150 -52 -203 28 -28 99 -28 136 0 49 36 67
70 68 123 1 42 4 51 21 53 11 2 20 11 20 21 0 15 -11 18 -76 22 -62 3 -84 0
-117 -16z m83 -33 c22 -15 24 -70 6 -105 -28 -52 -89 -63 -112 -19 -16 29 4
91 38 117 30 25 43 26 68 7z"/>
<path d="M130 6355 c0 -3 16 -37 35 -75 19 -38 35 -77 35 -86 0 -9 -34 -53
-75 -99 -42 -46 -72 -85 -68 -88 4 -3 24 -2 44 2 27 4 47 19 79 56 23 28 47
51 51 53 5 2 21 -21 35 -51 24 -49 31 -56 61 -59 19 -2 36 -1 39 4 3 4 -11 42
-31 84 -19 42 -35 82 -35 88 0 6 29 43 65 81 35 39 64 76 65 83 0 7 -13 12
-31 12 -26 0 -42 -11 -84 -57 -53 -58 -53 -58 -78 0 -25 56 -27 57 -66 57 -23
0 -41 -2 -41 -5z"/>
<path d="M12655 4386 c-100 -46 -165 -149 -173 -272 -5 -86 9 -134 49 -168 93
-79 255 -41 336 78 41 60 42 76 4 76 -24 0 -36 -10 -66 -51 -76 -106 -211
-108 -245 -3 -23 70 15 200 75 253 82 72 202 61 220 -19 6 -26 11 -30 41 -30
30 0 34 3 34 28 0 41 -32 93 -71 114 -49 26 -141 24 -204 -6z"/>
<path d="M1222 4388 c-28 -35 -272 -461 -267 -467 2 -5 19 -6 37 -2 27 6 39
18 71 74 39 67 39 67 122 67 93 0 105 -8 105 -67 0 -60 9 -73 51 -73 36 0 39
2 34 23 -2 12 -19 117 -36 232 -17 116 -33 213 -36 218 -7 12 -70 8 -81 -5z
m33 -155 c14 -116 18 -108 -54 -111 -34 -2 -61 1 -60 5 17 38 92 163 99 163 5
0 12 -26 15 -57z"/>
<path d="M700 2307 c0 -7 9 -20 20 -30 11 -9 20 -26 20 -36 0 -11 -29 -67 -65
-124 -66 -107 -75 -127 -52 -127 21 0 33 13 74 79 21 36 44 66 50 68 7 3 14
-17 18 -49 9 -65 18 -84 44 -91 30 -7 48 19 28 41 -8 9 -25 67 -36 127 -28
145 -33 155 -71 155 -18 0 -30 -5 -30 -13z"/>
<path d="M350 2185 c0 -3 16 -37 35 -75 19 -38 35 -77 35 -86 0 -9 -34 -53
-75 -99 -42 -46 -72 -85 -68 -88 4 -3 24 -2 44 2 27 4 47 19 79 56 23 28 47
51 51 53 5 2 21 -21 35 -51 24 -49 31 -56 61 -59 19 -2 36 -1 39 4 3 4 -11 42
-31 84 -19 42 -35 82 -35 88 0 6 32 45 70 88 39 42 70 79 70 82 0 3 -16 6 -36
6 -32 0 -44 -8 -89 -57 -53 -58 -53 -58 -78 0 -25 56 -27 57 -66 57 -23 0 -41
-2 -41 -5z"/>
<path d="M2630 477 c0 -7 9 -20 20 -30 11 -9 20 -26 20 -36 0 -11 -29 -67 -65
-124 -66 -107 -75 -127 -52 -127 21 0 33 13 74 79 21 36 44 66 50 68 7 3 14
-17 18 -49 9 -65 18 -84 44 -91 30 -7 48 19 28 41 -8 9 -25 67 -36 127 -28
145 -33 155 -71 155 -18 0 -30 -5 -30 -13z"/>
<path d="M3896 482 c-3 -5 -10 -38 -17 -75 -12 -66 -23 -79 -47 -55 -19 19
-104 14 -143 -8 -75 -43 -132 -179 -110 -260 18 -64 45 -84 114 -84 43 0 66 5
80 17 18 17 19 17 28 0 10 -17 59 -25 59 -9 0 4 20 102 45 217 25 116 48 222
51 238 5 25 3 27 -25 27 -16 0 -32 -4 -35 -8z m-79 -198 c23 -23 25 -31 20
-75 -12 -97 -79 -169 -142 -153 -33 8 -45 32 -45 91 0 60 25 111 69 140 44 30
66 29 98 -3z"/>
<path d="M4330 477 c0 -7 9 -20 20 -30 11 -9 20 -26 20 -36 0 -11 -29 -67 -65
-124 -66 -107 -75 -127 -52 -127 21 0 33 13 74 79 21 36 44 66 50 68 7 3 14
-17 18 -49 9 -65 18 -84 44 -91 30 -7 48 19 28 41 -8 9 -25 67 -36 127 -28
145 -33 155 -71 155 -18 0 -30 -5 -30 -13z"/>
<path d="M6370 487 c0 -1 -22 -107 -50 -236 -27 -128 -47 -237 -44 -242 3 -5
56 -9 118 -9 99 0 118 3 163 24 128 62 208 259 155 380 -31 69 -73 85 -224 86
-65 0 -118 -1 -118 -3z m205 -67 c57 -13 75 -40 75 -110 0 -102 -50 -198 -116
-226 -43 -18 -174 -19 -174 -1 0 21 67 324 74 336 9 13 86 14 141 1z"/>
<path d="M2280 355 c0 -3 16 -37 35 -75 19 -38 35 -77 35 -86 0 -9 -31 -51
-70 -93 -38 -43 -70 -83 -70 -89 0 -7 15 -12 33 -12 28 0 40 9 83 60 27 33 53
60 57 60 4 0 20 -27 35 -60 26 -57 28 -59 65 -60 20 0 37 5 37 11 0 6 -16 44
-35 86 -19 42 -35 81 -35 87 0 6 32 45 70 88 39 42 70 79 70 82 0 3 -16 6 -36
6 -32 0 -44 -8 -89 -57 -53 -58 -53 -58 -78 0 -25 56 -27 57 -66 57 -23 0 -41
-2 -41 -5z"/>
<path d="M3980 355 c0 -3 16 -37 35 -75 19 -38 35 -77 35 -86 0 -9 -31 -51
-70 -93 -38 -43 -70 -83 -70 -89 0 -7 15 -12 33 -12 28 0 40 9 83 60 27 33 53
60 57 60 4 0 20 -27 35 -60 26 -57 28 -59 65 -60 20 0 37 5 37 11 0 6 -16 44
-35 86 -19 42 -35 81 -35 87 0 6 32 45 70 88 39 42 70 79 70 82 0 3 -16 6 -36
6 -32 0 -44 -8 -89 -57 -53 -58 -53 -58 -78 0 -25 56 -27 57 -66 57 -23 0 -41
-2 -41 -5z"/>
<path d="M3128 283 c-3 -68 -3 -68 -70 -71 -68 -3 -68 -3 -68 -32 0 -29 0 -29
68 -32 67 -3 67 -3 70 -76 3 -73 3 -73 30 -70 26 3 27 6 32 73 5 70 5 70 73
73 67 3 67 3 67 32 0 29 0 29 -67 32 -68 3 -68 3 -71 71 -3 67 -3 67 -32 67
-29 0 -29 0 -32 -67z"/>
</g>
</svg>
